<?xml version="1.0" encoding="utf-8"?>
<!-- Generator: Adobe Illustrator 24.3.0, SVG Export Plug-In . SVG Version: 6.00 Build 0)  -->
<svg version="1.1" id="Layer_1" xmlns="http://www.w3.org/2000/svg" xmlns:xlink="http://www.w3.org/1999/xlink" x="0px" y="0px"
	 viewBox="0 0 402.706 112.824" style="enable-background:new 0 0 402.706 112.824;" xml:space="preserve">
<style type="text/css">
	.st0{fill:#2FAD6F;}
	.st1{fill:#0A2928;}
</style>
<g>
	<path class="st0" d="M136.648,80.488c-4.098-4.012-6.132-8.998-6.132-14.958c0-5.932,2.035-10.918,6.132-14.93
		c4.098-4.012,9.17-6.018,15.274-6.018c5.588,0,10.374,1.69,14.328,5.101s6.247,7.766,6.906,13.038h-9.428
		c-0.602-2.779-1.977-5.043-4.126-6.791c-2.178-1.748-4.728-2.607-7.68-2.607c-3.439,0-6.304,1.175-8.625,3.495
		c-2.321,2.321-3.467,5.244-3.467,8.712c0,3.496,1.146,6.391,3.467,8.711c2.321,2.321,5.187,3.496,8.625,3.496
		c2.952,0,5.502-0.859,7.68-2.607c2.149-1.748,3.525-3.983,4.126-6.763h9.428c-0.659,5.272-2.98,9.6-6.906,13.01
		c-3.955,3.41-8.74,5.13-14.328,5.13C145.817,86.506,140.746,84.5,136.648,80.488z"/>
	<path class="st1" d="M203.724,85.79l-2.521-7.106h-16.449l-2.521,7.106h-9.743l15.216-40.491h10.746l15.245,40.491H203.724z
		 M187.706,70.287h10.545l-5.272-14.958L187.706,70.287z"/>
	<path class="st1" d="M232.975,45.298c4.041,0,7.422,1.318,10.145,3.926c2.722,2.608,4.069,5.903,4.069,9.858
		c0,3.954-1.348,7.25-4.069,9.857c-2.723,2.607-6.104,3.926-10.145,3.926h-5.846V85.79h-9.112V45.298H232.975z M232.746,64.297
		c1.462,0,2.665-0.487,3.64-1.49s1.462-2.234,1.462-3.725s-0.487-2.723-1.462-3.726s-2.178-1.49-3.64-1.49h-5.616v10.431H232.746z"
		/>
	<path class="st1" d="M252.084,85.79V45.298h9.112V85.79H252.084z"/>
	<path class="st1" d="M302.543,45.298h11.605V85.79h-9.084V60.859L294.606,85.79h-6.219l-10.373-24.816V85.79h-9.112V45.298h11.749
		l10.918,26.278L302.543,45.298z"/>
	<path class="st1" d="M349.645,85.79l-2.521-7.106h-16.448l-2.522,7.106h-9.743l15.217-40.491h10.746l15.245,40.491H349.645z
		 M333.626,70.287h10.546l-5.273-14.958L333.626,70.287z"/>
	<path class="st1" d="M401.85,85.79h-11.147l-9.514-14.013l-9.484,14.013h-11.176l14.385-20.374l-14.127-20.117h11.204l9.313,13.727
		l9.227-13.727h11.09l-14.099,20.117L401.85,85.79z"/>
</g>
<g>
	<path class="st1" d="M239.771,100.089c0.344,0.05,0.651,0.141,0.926,0.273c0.273,0.133,0.509,0.304,0.705,0.511
		c0.197,0.208,0.348,0.454,0.453,0.739c0.104,0.285,0.157,0.609,0.157,0.975c0,0.261-0.038,0.533-0.115,0.818
		c-0.076,0.285-0.203,0.562-0.382,0.83c-0.178,0.269-0.41,0.516-0.697,0.742c-0.288,0.228-0.645,0.413-1.072,0.557
		c-0.328,0.11-0.692,0.188-1.092,0.232s-0.879,0.066-1.437,0.066h-2.842V94.727h2.741c0.251,0,0.479,0.004,0.685,0.013
		c0.205,0.008,0.395,0.021,0.566,0.037s0.332,0.037,0.48,0.062c0.147,0.024,0.287,0.054,0.418,0.087
		c0.345,0.094,0.658,0.223,0.939,0.386c0.282,0.163,0.521,0.358,0.719,0.586c0.196,0.227,0.349,0.483,0.455,0.771
		s0.16,0.601,0.16,0.938c0,0.271-0.032,0.531-0.096,0.781c-0.063,0.248-0.166,0.479-0.308,0.688
		c-0.141,0.21-0.323,0.398-0.548,0.564c-0.224,0.166-0.496,0.305-0.817,0.415V100.089z M237.788,99.532
		c0.266,0,0.495-0.012,0.688-0.037c0.194-0.024,0.368-0.062,0.523-0.111c0.415-0.139,0.718-0.354,0.908-0.648
		c0.191-0.293,0.287-0.639,0.287-1.037c0-0.409-0.1-0.744-0.299-1.004c-0.199-0.261-0.512-0.454-0.938-0.582
		c-0.21-0.061-0.453-0.104-0.73-0.128c-0.276-0.025-0.603-0.038-0.979-0.038h-1.519v3.586H237.788z M235.729,100.753v3.859h1.635
		c0.388,0,0.747-0.018,1.079-0.054s0.614-0.093,0.847-0.17c0.255-0.083,0.471-0.189,0.647-0.319c0.178-0.13,0.319-0.274,0.428-0.432
		c0.107-0.158,0.186-0.325,0.232-0.502c0.047-0.178,0.07-0.357,0.07-0.54c0-0.21-0.024-0.408-0.074-0.594s-0.132-0.352-0.245-0.498
		s-0.263-0.275-0.448-0.386s-0.416-0.196-0.693-0.258c-0.166-0.038-0.355-0.066-0.568-0.082c-0.213-0.018-0.478-0.025-0.793-0.025
		H235.729z"/>
	<path class="st1" d="M257.935,101.234v4.599h-1.353V94.727h2.877c0.486,0,0.899,0.018,1.239,0.054s0.651,0.093,0.934,0.17
		c0.773,0.211,1.365,0.569,1.773,1.075c0.409,0.507,0.614,1.139,0.614,1.897c0,0.447-0.072,0.849-0.216,1.203
		c-0.145,0.354-0.346,0.661-0.606,0.922c-0.26,0.26-0.571,0.473-0.934,0.639s-0.765,0.288-1.208,0.365v0.033l3.287,4.748h-1.353
		l-3.42-4.599H257.935z M257.935,95.946v4.068h1.337c0.415,0,0.769-0.015,1.062-0.042c0.293-0.027,0.556-0.077,0.788-0.149
		c0.471-0.144,0.833-0.373,1.088-0.689c0.254-0.314,0.382-0.728,0.382-1.236c-0.006-0.476-0.128-0.859-0.365-1.149
		c-0.238-0.291-0.567-0.5-0.988-0.627c-0.199-0.061-0.437-0.105-0.714-0.133c-0.276-0.027-0.628-0.042-1.054-0.042H257.935z"/>
	<path class="st1" d="M282.367,99.226l3.071-4.499h1.502l-3.769,5.47l3.943,5.637h-1.52l-3.254-4.707h-0.033l-3.254,4.707h-1.535
		l3.976-5.67l-3.735-5.437h1.486l3.088,4.499H282.367z"/>
</g>
<g>
	<path class="st0" d="M58.599,44.653l-3.319,8.682l-0.465,1.221H30.979c-10.951,0-19.861,9.287-19.861,20.687
		c0,11.411,8.911,20.687,19.861,20.687h8.002l-3.319,8.682l-0.169,0.44l-0.296,0.781h-4.217c-16.193,0-29.374-13.721-29.374-30.59
		s13.181-30.59,29.374-30.59H58.599z"/>
</g>
<g>
	<g>
		<polygon class="st1" points="73.443,41.979 68.63,54.556 52.796,95.93 49.012,105.833 48.843,106.273 38.442,106.273
			38.611,105.833 42.395,95.93 58.229,54.556 62.013,44.653 63.038,41.979 68.662,41.979 		"/>
	</g>
</g>
<g>
	<g>
		<polygon class="st1" points="99.245,23.486 67.575,106.273 57.164,106.273 88.832,23.486 		"/>
	</g>
</g>
<g>
	<g>
		<polygon class="st1" points="126.755,0 86.295,106.273 75.894,106.273 116.547,0 		"/>
	</g>
</g>
</svg>
