<?xml version="1.0" encoding="utf-8"?>
<!-- Generator: Adobe Illustrator 24.3.0, SVG Export Plug-In . SVG Version: 6.00 Build 0)  -->
<svg version="1.1" id="Layer_1" xmlns="http://www.w3.org/2000/svg" xmlns:xlink="http://www.w3.org/1999/xlink" x="0px" y="0px"
	 viewBox="0 0 402.706 106.273" style="enable-background:new 0 0 402.706 106.273;" xml:space="preserve">
<style type="text/css">
	.st0{fill:#2FAD6F;}
	.st1{fill:#0A2928;}
	.st2{fill-rule:evenodd;clip-rule:evenodd;fill:#27316F;}
	.st3{fill:#FFFFFF;}
	.st4{fill-rule:evenodd;clip-rule:evenodd;fill:#E52521;}
	.st5{fill:#E52521;}
	.st6{fill-rule:evenodd;clip-rule:evenodd;fill:#FFFFFF;}
	.st7{fill-rule:evenodd;clip-rule:evenodd;fill:#D0043C;}
	.st8{fill-rule:evenodd;clip-rule:evenodd;fill:#004289;}
	.st9{fill:#F8F7F7;}
	.st10{fill:#020203;}
	.st11{fill:#057032;}
	.st12{fill:#E4201B;}
</style>
<path class="st0" d="M137.018,80.488c-4.098-4.012-6.132-8.998-6.132-14.958c0-5.932,2.035-10.918,6.132-14.93
	c4.098-4.012,9.17-6.018,15.274-6.018c5.588,0,10.374,1.69,14.328,5.101s6.247,7.766,6.906,13.038h-9.428
	c-0.602-2.779-1.977-5.043-4.126-6.791c-2.178-1.748-4.728-2.607-7.68-2.607c-3.439,0-6.304,1.175-8.625,3.495
	c-2.321,2.321-3.467,5.244-3.467,8.712c0,3.496,1.146,6.391,3.467,8.711c2.321,2.321,5.187,3.496,8.625,3.496
	c2.952,0,5.502-0.859,7.68-2.607c2.149-1.748,3.525-3.983,4.126-6.763h9.428c-0.659,5.272-2.98,9.6-6.906,13.01
	c-3.955,3.41-8.74,5.13-14.328,5.13C146.188,86.506,141.116,84.5,137.018,80.488z"/>
<path class="st1" d="M204.095,85.79l-2.521-7.106h-16.449l-2.521,7.106h-9.743l15.216-40.491h10.746l15.245,40.491H204.095z
	 M188.076,70.287h10.545l-5.272-14.958L188.076,70.287z"/>
<path class="st1" d="M233.346,45.298c4.041,0,7.422,1.318,10.145,3.926c2.722,2.608,4.069,5.903,4.069,9.858
	c0,3.954-1.348,7.25-4.069,9.857c-2.723,2.607-6.104,3.926-10.145,3.926H227.5V85.79h-9.112V45.298H233.346z M233.116,64.297
	c1.462,0,2.665-0.487,3.64-1.49s1.462-2.234,1.462-3.725s-0.487-2.723-1.462-3.726s-2.178-1.49-3.64-1.49H227.5v10.431H233.116z"/>
<path class="st1" d="M252.454,85.79V45.298h9.112V85.79H252.454z"/>
<path class="st1" d="M302.914,45.298h11.605V85.79h-9.084V60.859L294.977,85.79h-6.219l-10.373-24.816V85.79h-9.112V45.298h11.749
	l10.918,26.278L302.914,45.298z"/>
<path class="st1" d="M350.016,85.79l-2.521-7.106h-16.448l-2.522,7.106h-9.743l15.217-40.491h10.746l15.245,40.491H350.016z
	 M333.997,70.287h10.546l-5.273-14.958L333.997,70.287z"/>
<path class="st1" d="M402.221,85.79h-11.147l-9.514-14.013l-9.484,14.013H360.9l14.385-20.374l-14.127-20.117h11.204l9.313,13.727
	l9.227-13.727h11.09l-14.099,20.117L402.221,85.79z"/>
<g>
	<path class="st0" d="M58.599,44.653l-3.319,8.682l-0.465,1.221H30.979c-10.951,0-19.861,9.287-19.861,20.687
		c0,11.411,8.911,20.687,19.861,20.687h8.002l-3.319,8.682l-0.169,0.44l-0.296,0.781h-4.217c-16.193,0-29.374-13.721-29.374-30.59
		s13.181-30.59,29.374-30.59H58.599z"/>
</g>
<g>
	<g>
		<polygon class="st1" points="73.443,41.979 68.63,54.556 52.796,95.93 49.012,105.833 48.843,106.273 38.442,106.273 
			38.611,105.833 42.395,95.93 58.229,54.556 62.013,44.653 63.038,41.979 68.662,41.979 		"/>
	</g>
</g>
<g>
	<g>
		<polygon class="st1" points="99.245,23.486 67.575,106.273 57.164,106.273 88.832,23.486 		"/>
	</g>
</g>
<g>
	<g>
		<polygon class="st1" points="126.755,0 86.295,106.273 75.894,106.273 116.547,0 		"/>
	</g>
</g>
<g>
	<path class="st1" d="M142.366,105.744h-2.033V96.34h-3.586v-1.702h9.197v1.702h-3.578V105.744z"/>
	<path class="st1" d="M170.769,100.191c0,0.846-0.12,1.622-0.361,2.328c-0.24,0.705-0.592,1.312-1.054,1.822
		c-0.463,0.509-1.029,0.904-1.702,1.187c-0.672,0.282-1.438,0.423-2.295,0.423c-0.858,0-1.623-0.141-2.295-0.423
		c-0.673-0.282-1.24-0.678-1.702-1.187c-0.462-0.51-0.813-1.117-1.054-1.822c-0.241-0.706-0.361-1.482-0.361-2.328
		c0-0.848,0.12-1.623,0.361-2.329c0.24-0.705,0.592-1.312,1.054-1.821c0.462-0.51,1.029-0.905,1.702-1.188
		c0.672-0.282,1.437-0.424,2.295-0.424c0.857,0,1.623,0.142,2.295,0.424c0.673,0.282,1.239,0.678,1.702,1.188
		c0.462,0.509,0.813,1.116,1.054,1.821C170.648,98.568,170.769,99.343,170.769,100.191z M168.668,100.191
		c0-0.676-0.083-1.267-0.249-1.772c-0.166-0.507-0.396-0.929-0.688-1.267c-0.294-0.337-0.643-0.589-1.046-0.755
		c-0.404-0.166-0.847-0.249-1.328-0.249s-0.925,0.083-1.328,0.249c-0.404,0.166-0.753,0.418-1.046,0.755
		c-0.294,0.338-0.523,0.76-0.689,1.267c-0.166,0.506-0.249,1.097-0.249,1.772c0,0.675,0.083,1.266,0.249,1.771
		c0.166,0.507,0.396,0.927,0.689,1.262c0.293,0.335,0.642,0.587,1.046,0.756c0.403,0.169,0.847,0.253,1.328,0.253
		s0.924-0.084,1.328-0.253c0.403-0.169,0.752-0.421,1.046-0.756c0.293-0.335,0.522-0.755,0.688-1.262
		C168.585,101.457,168.668,100.866,168.668,100.191z"/>
	<path class="st1" d="M185.848,105.744V94.637h2.034v5.056h0.033l4.191-5.056h2.523l-4.632,5.503l5.014,5.604h-2.606l-4.49-5.014
		h-0.033v5.014H185.848z"/>
	<path class="st1" d="M211.544,104.043h5.462v1.701h-7.496V94.637h7.197v1.702h-5.163v2.871h4.433v1.702h-4.433V104.043z"/>
	<path class="st1" d="M237.87,99.801c0.797,1.135,1.444,2.142,1.942,3.021h0.05c-0.066-1.444-0.1-2.496-0.1-3.154v-5.03h2.034
		v11.106h-2.134l-3.619-5.113c-0.636-0.886-1.295-1.912-1.976-3.08h-0.05c0.066,1.361,0.1,2.416,0.1,3.163v5.03h-2.033V94.637h2.133
		L237.87,99.801z"/>
	<path class="st1" d="M257.374,105.744V94.637h2.034v11.106H257.374z"/>
	<path class="st1" d="M283.054,94.637v1.104l-5.943,8.301h6.018v1.701h-8.724v-1.096l5.951-8.309h-5.802v-1.702H283.054z"/>
	<path class="st1" d="M304.482,102.914H300.3l-1.088,2.83h-2.167l4.408-11.106h1.859l4.407,11.106h-2.149L304.482,102.914z
		 M302.374,97.31c-0.388,1.162-0.734,2.133-1.039,2.913l-0.38,0.988h2.871l-0.38-0.988c-0.301-0.787-0.647-1.758-1.039-2.913
		H302.374z"/>
	<path class="st1" d="M326.759,105.744h-2.033V96.34h-3.586v-1.702h9.197v1.702h-3.578V105.744z"/>
	<path class="st1" d="M344.835,105.744V94.637h2.033v11.106H344.835z"/>
	<path class="st1" d="M372.772,100.191c0,0.846-0.12,1.622-0.361,2.328c-0.24,0.705-0.592,1.312-1.054,1.822
		c-0.462,0.509-1.029,0.904-1.702,1.187c-0.672,0.282-1.438,0.423-2.295,0.423s-1.623-0.141-2.295-0.423
		c-0.673-0.282-1.24-0.678-1.702-1.187c-0.462-0.51-0.813-1.117-1.054-1.822c-0.241-0.706-0.361-1.482-0.361-2.328
		c0-0.848,0.12-1.623,0.361-2.329c0.24-0.705,0.592-1.312,1.054-1.821c0.462-0.51,1.029-0.905,1.702-1.188
		c0.672-0.282,1.438-0.424,2.295-0.424s1.623,0.142,2.295,0.424c0.673,0.282,1.24,0.678,1.702,1.188
		c0.462,0.509,0.813,1.116,1.054,1.821C372.652,98.568,372.772,99.343,372.772,100.191z M370.673,100.191
		c0-0.676-0.084-1.267-0.25-1.772c-0.166-0.507-0.396-0.929-0.688-1.267c-0.293-0.337-0.642-0.589-1.046-0.755
		s-0.847-0.249-1.328-0.249s-0.924,0.083-1.328,0.249s-0.753,0.418-1.046,0.755c-0.293,0.338-0.522,0.76-0.688,1.267
		c-0.166,0.506-0.25,1.097-0.25,1.772c0,0.675,0.084,1.266,0.25,1.771c0.166,0.507,0.396,0.927,0.688,1.262s0.642,0.587,1.046,0.756
		s0.847,0.253,1.328,0.253s0.924-0.084,1.328-0.253s0.753-0.421,1.046-0.756s0.522-0.755,0.688-1.262
		C370.589,101.457,370.673,100.866,370.673,100.191z"/>
	<path class="st1" d="M393.637,99.801c0.797,1.135,1.445,2.142,1.943,3.021h0.049c-0.066-1.444-0.1-2.496-0.1-3.154v-5.03h2.034
		v11.106h-2.134l-3.619-5.113c-0.636-0.886-1.295-1.912-1.975-3.08h-0.051c0.066,1.361,0.1,2.416,0.1,3.163v5.03h-2.033V94.637
		h2.133L393.637,99.801z"/>
</g>
</svg>
