<?xml version="1.0" encoding="utf-8"?>
<!-- Generator: Adobe Illustrator 24.3.0, SVG Export Plug-In . SVG Version: 6.00 Build 0)  -->
<svg version="1.1" id="Layer_1" xmlns="http://www.w3.org/2000/svg" xmlns:xlink="http://www.w3.org/1999/xlink" x="0px" y="0px"
	 viewBox="0 0 409.43 113.61" style="enable-background:new 0 0 409.43 113.61;" xml:space="preserve">
<style type="text/css">
	.st0{fill:#2FAD6F;}
	.st1{fill:#0A2928;}
	.st2{fill:#FFFFFF;}
</style>
<g>
	<path class="st0" d="M138.38,84.16c-4.1-4.01-6.13-9-6.13-14.96c0-5.93,2.03-10.92,6.13-14.93c4.1-4.01,9.17-6.02,15.27-6.02
		c5.59,0,10.37,1.69,14.33,5.1s6.25,7.77,6.91,13.04h-9.43c-0.6-2.78-1.98-5.04-4.13-6.79c-2.18-1.75-4.73-2.61-7.68-2.61
		c-3.44,0-6.3,1.17-8.63,3.5c-2.32,2.32-3.47,5.24-3.47,8.71c0,3.5,1.15,6.39,3.47,8.71c2.32,2.32,5.19,3.5,8.63,3.5
		c2.95,0,5.5-0.86,7.68-2.61c2.15-1.75,3.52-3.98,4.13-6.76h9.43c-0.66,5.27-2.98,9.6-6.91,13.01c-3.95,3.41-8.74,5.13-14.33,5.13
		C147.55,90.18,142.47,88.17,138.38,84.16z"/>
	<path class="st1" d="M205.45,89.46l-2.52-7.11h-16.45l-2.52,7.11h-9.74l15.22-40.49h10.75l15.25,40.49H205.45z M189.43,73.96h10.55
		L194.71,59L189.43,73.96z"/>
	<path class="st1" d="M234.7,48.97c4.04,0,7.42,1.32,10.14,3.93c2.72,2.61,4.07,5.9,4.07,9.86c0,3.95-1.35,7.25-4.07,9.86
		c-2.72,2.61-6.1,3.93-10.14,3.93h-5.85v12.92h-9.11V48.97H234.7z M234.47,67.97c1.46,0,2.67-0.49,3.64-1.49s1.46-2.23,1.46-3.72
		c0-1.49-0.49-2.72-1.46-3.73s-2.18-1.49-3.64-1.49h-5.62v10.43H234.47z"/>
	<path class="st1" d="M253.81,89.46V48.97h9.11v40.49H253.81z"/>
	<path class="st1" d="M304.27,48.97h11.61v40.49h-9.08V64.53l-10.46,24.93h-6.22l-10.37-24.82v24.82h-9.11V48.97h11.75l10.92,26.28
		L304.27,48.97z"/>
	<path class="st1" d="M351.37,89.46l-2.52-7.11H332.4l-2.52,7.11h-9.74l15.22-40.49h10.75l15.25,40.49H351.37z M335.36,73.96h10.55
		L340.63,59L335.36,73.96z"/>
	<path class="st1" d="M403.58,89.46h-11.15l-9.51-14.01l-9.48,14.01h-11.18l14.38-20.37l-14.13-20.12h11.2l9.31,13.73l9.23-13.73
		h11.09l-14.1,20.12L403.58,89.46z"/>
</g>
<g>
	<path class="st1" d="M219.81,109.5l4.52-11.11h1.17l4.52,11.11h-1.47l-1.33-3.35h-4.64l-1.33,3.35H219.81z M224.91,100.12
		c-0.5,1.38-0.97,2.64-1.42,3.77l-0.42,1.05h3.68l-0.42-1.04c-0.46-1.15-0.92-2.41-1.39-3.77H224.91z"/>
	<path class="st1" d="M240.99,103.72c0,0.21,0.05,0.39,0.14,0.53c0.09,0.14,0.22,0.25,0.37,0.34c0.15,0.09,0.33,0.16,0.54,0.21
		c0.2,0.06,0.41,0.11,0.63,0.15c0.3,0.07,0.58,0.14,0.84,0.22s0.51,0.2,0.73,0.36c0.22,0.16,0.41,0.38,0.54,0.65
		c0.14,0.27,0.21,0.63,0.21,1.07c0,0.4-0.08,0.75-0.23,1.06c-0.15,0.31-0.37,0.56-0.66,0.77c-0.28,0.21-0.62,0.37-1.01,0.47
		c-0.39,0.11-0.82,0.16-1.29,0.16c-0.29,0-0.55-0.01-0.78-0.04c-0.24-0.03-0.44-0.07-0.62-0.12c-0.18-0.05-0.33-0.1-0.46-0.15
		s-0.23-0.1-0.32-0.14v-1.08c0.33,0.13,0.65,0.24,0.97,0.32c0.32,0.08,0.67,0.12,1.06,0.12c0.3,0,0.58-0.03,0.82-0.08
		c0.24-0.06,0.45-0.14,0.63-0.25c0.18-0.11,0.31-0.24,0.41-0.41s0.14-0.35,0.14-0.57c0-0.22-0.04-0.4-0.13-0.55s-0.2-0.26-0.35-0.36
		c-0.15-0.09-0.32-0.17-0.51-0.23c-0.19-0.06-0.4-0.12-0.61-0.17c-0.28-0.06-0.56-0.13-0.84-0.22c-0.29-0.08-0.54-0.2-0.78-0.35
		c-0.23-0.15-0.42-0.35-0.57-0.61c-0.14-0.26-0.22-0.59-0.22-0.99c0-0.42,0.07-0.77,0.22-1.08s0.35-0.56,0.61-0.76
		s0.55-0.35,0.89-0.45s0.69-0.15,1.07-0.15c0.44,0,0.84,0.04,1.22,0.12c0.37,0.08,0.71,0.19,1.02,0.32v1.1
		c-0.32-0.13-0.65-0.23-0.98-0.31s-0.67-0.12-1.02-0.13c-0.3,0-0.55,0.03-0.76,0.09c-0.21,0.06-0.38,0.15-0.52,0.25
		c-0.13,0.11-0.23,0.24-0.3,0.38C241.02,103.38,240.99,103.54,240.99,103.72z"/>
	<path class="st1" d="M256.36,103.72c0,0.21,0.05,0.39,0.14,0.53c0.09,0.14,0.22,0.25,0.37,0.34c0.15,0.09,0.33,0.16,0.54,0.21
		c0.2,0.06,0.41,0.11,0.63,0.15c0.3,0.07,0.58,0.14,0.84,0.22s0.51,0.2,0.73,0.36c0.22,0.16,0.41,0.38,0.54,0.65
		c0.14,0.27,0.21,0.63,0.21,1.07c0,0.4-0.08,0.75-0.23,1.06c-0.15,0.31-0.37,0.56-0.66,0.77c-0.28,0.21-0.62,0.37-1.01,0.47
		c-0.39,0.11-0.82,0.16-1.29,0.16c-0.29,0-0.55-0.01-0.78-0.04c-0.24-0.03-0.44-0.07-0.62-0.12c-0.18-0.05-0.33-0.1-0.46-0.15
		s-0.23-0.1-0.32-0.14v-1.08c0.33,0.13,0.65,0.24,0.97,0.32c0.32,0.08,0.67,0.12,1.06,0.12c0.3,0,0.58-0.03,0.82-0.08
		c0.24-0.06,0.45-0.14,0.63-0.25c0.18-0.11,0.31-0.24,0.41-0.41s0.14-0.35,0.14-0.57c0-0.22-0.04-0.4-0.13-0.55s-0.2-0.26-0.35-0.36
		c-0.15-0.09-0.32-0.17-0.51-0.23c-0.19-0.06-0.4-0.12-0.61-0.17c-0.28-0.06-0.56-0.13-0.84-0.22c-0.29-0.08-0.54-0.2-0.78-0.35
		c-0.23-0.15-0.42-0.35-0.57-0.61c-0.14-0.26-0.22-0.59-0.22-0.99c0-0.42,0.07-0.77,0.22-1.08s0.35-0.56,0.61-0.76
		s0.55-0.35,0.89-0.45s0.69-0.15,1.07-0.15c0.44,0,0.84,0.04,1.22,0.12c0.37,0.08,0.71,0.19,1.02,0.32v1.1
		c-0.32-0.13-0.65-0.23-0.98-0.31s-0.67-0.12-1.02-0.13c-0.3,0-0.55,0.03-0.76,0.09c-0.21,0.06-0.38,0.15-0.52,0.25
		c-0.13,0.11-0.23,0.24-0.3,0.38C256.39,103.38,256.36,103.54,256.36,103.72z"/>
	<path class="st1" d="M274.56,108.59c0.43,0,0.81-0.03,1.17-0.1c0.35-0.07,0.7-0.17,1.05-0.29v1.07c-0.28,0.14-0.63,0.25-1.05,0.33
		s-0.86,0.12-1.34,0.12c-0.56,0-1.09-0.07-1.59-0.21c-0.5-0.14-0.92-0.38-1.29-0.7c-0.36-0.32-0.65-0.74-0.85-1.26
		s-0.31-1.14-0.31-1.87c0-0.72,0.1-1.34,0.3-1.87s0.46-0.97,0.79-1.32c0.33-0.35,0.71-0.62,1.14-0.8c0.43-0.18,0.88-0.27,1.35-0.27
		c0.44,0,0.85,0.07,1.24,0.22s0.72,0.38,1,0.69c0.28,0.31,0.5,0.72,0.67,1.22c0.16,0.5,0.24,1.1,0.24,1.79c0,0.07,0,0.12,0,0.17
		s0,0.15-0.01,0.32h-5.45c0,0.5,0.08,0.93,0.23,1.28c0.15,0.35,0.36,0.64,0.62,0.85c0.26,0.22,0.57,0.38,0.93,0.48
		S274.15,108.59,274.56,108.59z M273.88,102.51c-0.3,0-0.57,0.06-0.83,0.17c-0.26,0.12-0.48,0.27-0.67,0.47s-0.34,0.43-0.46,0.7
		c-0.12,0.27-0.19,0.55-0.22,0.86h4.03c0-0.31-0.04-0.6-0.12-0.87c-0.08-0.27-0.2-0.5-0.36-0.7c-0.16-0.2-0.35-0.36-0.58-0.47
		S274.18,102.51,273.88,102.51z"/>
	<path class="st1" d="M291.93,109.52c-0.11,0.04-0.28,0.09-0.51,0.12c-0.23,0.04-0.5,0.06-0.81,0.07c-0.42,0-0.77-0.05-1.08-0.15
		s-0.56-0.25-0.76-0.44c-0.2-0.19-0.35-0.42-0.45-0.69s-0.15-0.57-0.15-0.91v-4.8h-1.52v-1.1h1.52v-2.16h1.29v2.16h2.36v1.1h-2.36
		v4.6c0,0.18,0.03,0.35,0.08,0.51c0.05,0.16,0.14,0.29,0.25,0.4c0.11,0.11,0.26,0.2,0.44,0.27s0.39,0.1,0.64,0.1
		c0.17,0,0.35-0.01,0.54-0.04c0.19-0.03,0.37-0.06,0.53-0.11V109.52z"/>
	<path class="st1" d="M303.09,103.72c0,0.21,0.05,0.39,0.14,0.53c0.09,0.14,0.21,0.25,0.37,0.34s0.33,0.16,0.54,0.21
		c0.2,0.06,0.41,0.11,0.63,0.15c0.3,0.07,0.58,0.14,0.84,0.22c0.26,0.08,0.51,0.2,0.73,0.36c0.22,0.16,0.41,0.38,0.54,0.65
		c0.14,0.27,0.21,0.63,0.21,1.07c0,0.4-0.08,0.75-0.23,1.06c-0.16,0.31-0.37,0.56-0.66,0.77c-0.28,0.21-0.62,0.37-1.01,0.47
		c-0.39,0.11-0.82,0.16-1.29,0.16c-0.29,0-0.55-0.01-0.78-0.04s-0.44-0.07-0.62-0.12s-0.33-0.1-0.46-0.15
		c-0.13-0.05-0.23-0.1-0.31-0.14v-1.08c0.33,0.13,0.65,0.24,0.97,0.32c0.32,0.08,0.67,0.12,1.06,0.12c0.3,0,0.58-0.03,0.82-0.08
		c0.25-0.06,0.46-0.14,0.63-0.25c0.18-0.11,0.31-0.24,0.41-0.41c0.1-0.16,0.14-0.35,0.14-0.57c0-0.22-0.04-0.4-0.13-0.55
		s-0.2-0.26-0.35-0.36c-0.15-0.09-0.32-0.17-0.51-0.23c-0.19-0.06-0.4-0.12-0.61-0.17c-0.28-0.06-0.56-0.13-0.84-0.22
		c-0.29-0.08-0.54-0.2-0.78-0.35c-0.23-0.15-0.42-0.35-0.57-0.61c-0.14-0.26-0.22-0.59-0.22-0.99c0-0.42,0.07-0.77,0.22-1.08
		s0.35-0.56,0.61-0.76c0.25-0.2,0.55-0.35,0.89-0.45s0.69-0.15,1.07-0.15c0.44,0,0.84,0.04,1.22,0.12c0.37,0.08,0.71,0.19,1.02,0.32
		v1.1c-0.32-0.13-0.65-0.23-0.98-0.31s-0.67-0.12-1.02-0.13c-0.3,0-0.55,0.03-0.76,0.09c-0.21,0.06-0.38,0.15-0.52,0.25
		c-0.14,0.11-0.23,0.24-0.3,0.38C303.13,103.38,303.09,103.54,303.09,103.72z"/>
</g>
<g>
	<path class="st0" d="M61.4,48.32L58.08,57l-0.47,1.22H33.78c-10.95,0-19.86,9.29-19.86,20.69c0,11.41,8.91,20.69,19.86,20.69h8
		l-3.32,8.68l-0.17,0.44L38,109.5h-4.22c-16.19,0-29.37-13.72-29.37-30.59s13.18-30.59,29.37-30.59H61.4z"/>
</g>
<g>
	<g>
		<polygon class="st1" points="76.25,45.65 71.43,58.23 55.6,99.6 51.82,109.5 51.65,109.94 41.25,109.94 41.41,109.5 45.2,99.6
			61.03,58.23 64.82,48.32 65.84,45.65 71.47,45.65 		"/>
	</g>
</g>
<g>
	<g>
		<polygon class="st1" points="102.05,27.16 70.38,109.94 59.97,109.94 91.64,27.16 		"/>
	</g>
</g>
<g>
	<g>
		<polygon class="st1" points="129.56,3.67 89.1,109.94 78.7,109.94 119.35,3.67 		"/>
	</g>
</g>
</svg>
