<?xml version="1.0" encoding="utf-8"?>
<!-- Generator: Adobe Illustrator 24.3.0, SVG Export Plug-In . SVG Version: 6.00 Build 0)  -->
<svg version="1.1" id="Layer_1" xmlns="http://www.w3.org/2000/svg" xmlns:xlink="http://www.w3.org/1999/xlink" x="0px" y="0px"
	 viewBox="0 0 402.706 112.824" style="enable-background:new 0 0 402.706 112.824;" xml:space="preserve">
<style type="text/css">
	.st0{fill:#2FAD6F;}
	.st1{fill:#0A2928;}
</style>
<g>
	<path class="st0" d="M135.739,80.488c-4.098-4.012-6.132-8.998-6.132-14.958c0-5.932,2.035-10.918,6.132-14.93
		c4.098-4.012,9.17-6.018,15.274-6.018c5.588,0,10.374,1.69,14.328,5.101s6.247,7.766,6.906,13.038h-9.428
		c-0.602-2.779-1.977-5.043-4.126-6.791c-2.178-1.748-4.728-2.607-7.68-2.607c-3.439,0-6.304,1.175-8.625,3.495
		c-2.321,2.321-3.467,5.244-3.467,8.712c0,3.496,1.146,6.391,3.467,8.711c2.321,2.321,5.187,3.496,8.625,3.496
		c2.952,0,5.502-0.859,7.68-2.607c2.149-1.748,3.525-3.983,4.126-6.763h9.428c-0.659,5.272-2.98,9.6-6.906,13.01
		c-3.955,3.41-8.74,5.13-14.328,5.13C144.909,86.506,139.837,84.5,135.739,80.488z"/>
	<path class="st1" d="M202.816,85.79l-2.521-7.106h-16.449l-2.521,7.106h-9.743l15.216-40.491h10.746l15.245,40.491H202.816z
		 M186.797,70.287h10.545l-5.272-14.958L186.797,70.287z"/>
	<path class="st1" d="M232.067,45.298c4.041,0,7.422,1.318,10.145,3.926c2.722,2.608,4.069,5.903,4.069,9.858
		c0,3.954-1.348,7.25-4.069,9.857c-2.723,2.607-6.104,3.926-10.145,3.926h-5.846V85.79h-9.112V45.298H232.067z M231.837,64.297
		c1.462,0,2.665-0.487,3.64-1.49s1.462-2.234,1.462-3.725s-0.487-2.723-1.462-3.726s-2.178-1.49-3.64-1.49h-5.616v10.431H231.837z"
		/>
	<path class="st1" d="M251.175,85.79V45.298h9.112V85.79H251.175z"/>
	<path class="st1" d="M301.635,45.298h11.605V85.79h-9.084V60.859L293.698,85.79h-6.219l-10.373-24.816V85.79h-9.112V45.298h11.749
		l10.918,26.278L301.635,45.298z"/>
	<path class="st1" d="M348.737,85.79l-2.521-7.106h-16.448l-2.522,7.106h-9.743l15.217-40.491h10.746l15.245,40.491H348.737z
		 M332.718,70.287h10.546l-5.273-14.958L332.718,70.287z"/>
	<path class="st1" d="M400.942,85.79h-11.147l-9.514-14.013l-9.484,14.013h-11.176l14.385-20.374l-14.127-20.117h11.204
		l9.313,13.727l9.227-13.727h11.09l-14.099,20.117L400.942,85.79z"/>
</g>
<g>
	<path class="st1" d="M177.555,105.833h-1.353V94.727h3.076c0.459,0,0.883,0.027,1.272,0.083s0.748,0.141,1.074,0.258
		c0.663,0.237,1.166,0.593,1.509,1.066c0.343,0.473,0.514,1.056,0.514,1.747c0,0.564-0.111,1.062-0.336,1.49
		c-0.224,0.429-0.548,0.787-0.974,1.075c-0.426,0.287-0.943,0.505-1.555,0.651c-0.61,0.146-1.303,0.22-2.076,0.22
		c-0.37,0-0.754-0.017-1.152-0.05V105.833z M177.555,100.03c0.183,0.022,0.374,0.039,0.573,0.051
		c0.199,0.011,0.387,0.016,0.564,0.016c0.636,0,1.179-0.049,1.627-0.148s0.813-0.245,1.096-0.437
		c0.282-0.19,0.486-0.423,0.614-0.697c0.127-0.273,0.19-0.585,0.19-0.934c0-0.432-0.104-0.786-0.311-1.062
		c-0.208-0.276-0.503-0.487-0.885-0.631c-0.237-0.089-0.512-0.15-0.821-0.187c-0.311-0.036-0.67-0.055-1.079-0.055h-1.569V100.03z"
		/>
	<path class="st1" d="M202.177,98.993h-0.1c-0.304,0-0.603,0.027-0.896,0.083c-0.293,0.056-0.568,0.14-0.825,0.253
		c-0.258,0.113-0.49,0.254-0.697,0.42c-0.208,0.166-0.381,0.362-0.52,0.589v5.495h-1.286v-7.886h0.996l0.249,1.253h0.024
		c0.128-0.204,0.284-0.396,0.47-0.572c0.185-0.177,0.394-0.332,0.626-0.465s0.487-0.236,0.764-0.312
		c0.277-0.074,0.567-0.112,0.872-0.112c0.055,0,0.112,0.002,0.17,0.005c0.059,0.003,0.109,0.007,0.153,0.013V98.993z"/>
	<path class="st1" d="M222.699,101.899c0,0.62-0.088,1.185-0.266,1.693c-0.177,0.509-0.427,0.945-0.751,1.308
		c-0.323,0.362-0.715,0.643-1.175,0.842c-0.459,0.199-0.974,0.299-1.544,0.299c-0.586,0-1.11-0.1-1.572-0.299
		c-0.463-0.199-0.855-0.479-1.179-0.842c-0.324-0.362-0.572-0.799-0.743-1.308c-0.172-0.509-0.258-1.073-0.258-1.693
		c0-0.625,0.089-1.192,0.266-1.702c0.178-0.509,0.428-0.945,0.752-1.311c0.323-0.365,0.716-0.648,1.179-0.848
		c0.462-0.199,0.978-0.299,1.548-0.299c0.581,0,1.104,0.1,1.568,0.299s0.858,0.482,1.179,0.848c0.321,0.365,0.567,0.802,0.739,1.311
		C222.613,100.706,222.699,101.274,222.699,101.899z M221.354,101.899c0-0.487-0.06-0.92-0.178-1.299
		c-0.119-0.379-0.285-0.7-0.498-0.963c-0.214-0.263-0.467-0.462-0.76-0.598c-0.294-0.136-0.614-0.204-0.963-0.204
		s-0.67,0.068-0.963,0.204c-0.294,0.136-0.547,0.335-0.76,0.598s-0.379,0.584-0.498,0.963s-0.179,0.812-0.179,1.299
		c0,0.481,0.06,0.912,0.179,1.291s0.286,0.698,0.502,0.958c0.216,0.261,0.471,0.458,0.764,0.594
		c0.294,0.136,0.614,0.203,0.963,0.203s0.669-0.067,0.959-0.203c0.291-0.136,0.542-0.333,0.756-0.594
		c0.213-0.26,0.379-0.579,0.498-0.958C221.295,102.811,221.354,102.38,221.354,101.899z"/>
	<path class="st1" d="M243.842,101.799c0,0.548-0.054,1.033-0.162,1.457c-0.108,0.423-0.252,0.792-0.43,1.108
		c-0.178,0.314-0.387,0.579-0.625,0.792c-0.239,0.213-0.486,0.385-0.742,0.515s-0.516,0.225-0.779,0.282
		c-0.265,0.059-0.513,0.087-0.746,0.087c-0.484,0-0.903-0.078-1.26-0.236c-0.355-0.157-0.675-0.392-0.958-0.701h-0.024v4.59h-1.263
		V97.947h0.972l0.273,0.896h0.025c0.071-0.11,0.164-0.219,0.277-0.323c0.114-0.105,0.266-0.218,0.457-0.337
		c0.19-0.119,0.421-0.223,0.688-0.312c0.269-0.088,0.561-0.133,0.876-0.133c0.443,0,0.87,0.075,1.282,0.225
		c0.413,0.149,0.776,0.388,1.092,0.714s0.568,0.746,0.76,1.258C243.747,100.447,243.842,101.068,243.842,101.799z M242.498,101.816
		c0-0.459-0.049-0.871-0.146-1.236c-0.098-0.365-0.244-0.677-0.438-0.935c-0.195-0.257-0.435-0.455-0.718-0.593
		c-0.284-0.139-0.612-0.208-0.985-0.208c-0.268,0-0.511,0.036-0.73,0.108c-0.22,0.071-0.419,0.163-0.597,0.273
		c-0.179,0.11-0.331,0.229-0.46,0.357c-0.128,0.127-0.23,0.24-0.309,0.34v4.125c0.272,0.277,0.583,0.496,0.931,0.656
		c0.349,0.16,0.723,0.24,1.123,0.24c0.245,0,0.504-0.045,0.776-0.137c0.272-0.091,0.524-0.254,0.756-0.489
		c0.23-0.235,0.421-0.555,0.571-0.959S242.498,102.441,242.498,101.816z"/>
	<path class="st1" d="M258.919,100.048c0,0.215,0.047,0.393,0.139,0.531c0.092,0.138,0.215,0.25,0.369,0.336
		s0.333,0.156,0.535,0.211c0.203,0.056,0.413,0.105,0.629,0.15c0.298,0.066,0.579,0.14,0.845,0.22c0.265,0.08,0.51,0.2,0.734,0.36
		c0.225,0.161,0.405,0.378,0.544,0.652c0.138,0.273,0.207,0.629,0.207,1.066c0,0.398-0.078,0.751-0.232,1.059
		c-0.155,0.307-0.374,0.564-0.656,0.771c-0.282,0.208-0.62,0.365-1.013,0.474c-0.393,0.107-0.824,0.161-1.295,0.161
		c-0.288,0-0.549-0.015-0.784-0.045s-0.443-0.069-0.623-0.116s-0.333-0.096-0.461-0.146c-0.127-0.05-0.232-0.097-0.314-0.141v-1.08
		c0.325,0.133,0.648,0.238,0.97,0.316c0.32,0.077,0.673,0.115,1.059,0.115c0.305,0,0.579-0.027,0.823-0.082
		c0.245-0.056,0.455-0.138,0.632-0.245c0.177-0.108,0.312-0.244,0.407-0.407c0.096-0.163,0.143-0.353,0.143-0.568
		c0-0.222-0.043-0.404-0.13-0.548s-0.204-0.263-0.351-0.356c-0.146-0.095-0.316-0.172-0.509-0.232
		c-0.193-0.062-0.396-0.117-0.607-0.166c-0.277-0.062-0.559-0.133-0.844-0.217c-0.285-0.082-0.544-0.199-0.778-0.348
		c-0.233-0.15-0.422-0.354-0.565-0.61c-0.145-0.258-0.216-0.588-0.216-0.992c0-0.415,0.074-0.774,0.224-1.079
		s0.352-0.557,0.606-0.756c0.254-0.199,0.55-0.348,0.888-0.447s0.694-0.15,1.071-0.15c0.437,0,0.842,0.042,1.216,0.125
		c0.373,0.083,0.712,0.188,1.017,0.315v1.096c-0.324-0.127-0.652-0.231-0.984-0.312s-0.673-0.123-1.024-0.129
		c-0.297,0-0.551,0.031-0.762,0.092c-0.21,0.061-0.383,0.146-0.518,0.253c-0.136,0.108-0.234,0.235-0.296,0.382
		C258.95,99.708,258.919,99.87,258.919,100.048z"/>
	<path class="st1" d="M278.362,99.026h0.024c0.144-0.183,0.305-0.353,0.481-0.511c0.177-0.157,0.373-0.293,0.59-0.406
		c0.215-0.113,0.447-0.204,0.697-0.271c0.248-0.066,0.517-0.1,0.805-0.1c0.299,0,0.598,0.041,0.896,0.121s0.575,0.223,0.83,0.428
		c0.255,0.204,0.462,0.489,0.623,0.854c0.16,0.365,0.24,0.836,0.24,1.411v5.279h-1.287v-5.072c0-0.636-0.12-1.114-0.36-1.436
		c-0.241-0.321-0.636-0.481-1.183-0.481c-0.454,0-0.886,0.123-1.295,0.369c-0.41,0.246-0.764,0.585-1.062,1.017v5.604h-1.287v-12.02
		h1.287V99.026z"/>
	<path class="st1" d="M302.776,104.962h-0.033c-0.105,0.133-0.238,0.264-0.398,0.394s-0.346,0.246-0.556,0.349
		c-0.211,0.103-0.44,0.185-0.689,0.245s-0.515,0.091-0.797,0.091c-0.382,0-0.731-0.057-1.05-0.17s-0.593-0.279-0.822-0.498
		s-0.408-0.485-0.535-0.801s-0.19-0.672-0.19-1.07c0-0.394,0.07-0.745,0.211-1.055c0.142-0.31,0.339-0.572,0.594-0.789
		c0.255-0.215,0.561-0.381,0.917-0.498c0.357-0.115,0.751-0.174,1.183-0.174c0.41,0.006,0.789,0.041,1.138,0.107
		s0.658,0.15,0.93,0.25h0.033v-0.549c0-0.215-0.014-0.406-0.042-0.572c-0.027-0.166-0.074-0.312-0.141-0.439
		c-0.144-0.266-0.373-0.486-0.689-0.66c-0.314-0.175-0.741-0.262-1.277-0.262c-0.398,0-0.773,0.037-1.125,0.112
		c-0.352,0.074-0.701,0.179-1.051,0.312v-1.08c0.133-0.066,0.29-0.128,0.47-0.187c0.18-0.058,0.369-0.107,0.568-0.149
		c0.199-0.041,0.409-0.073,0.631-0.096c0.222-0.021,0.442-0.033,0.664-0.033c0.797,0,1.448,0.142,1.955,0.424
		c0.506,0.282,0.87,0.656,1.091,1.121c0.084,0.177,0.143,0.372,0.179,0.585s0.054,0.446,0.054,0.701v5.263h-1.078L302.776,104.962z
		 M302.71,102.372c-0.237-0.066-0.518-0.131-0.843-0.191s-0.684-0.094-1.074-0.1c-0.546,0-0.973,0.116-1.281,0.349
		s-0.463,0.589-0.463,1.071c0,0.243,0.039,0.456,0.116,0.639s0.183,0.333,0.318,0.452c0.135,0.119,0.295,0.208,0.479,0.266
		c0.184,0.059,0.381,0.087,0.59,0.087c0.276,0,0.532-0.04,0.769-0.12c0.237-0.08,0.448-0.176,0.633-0.286s0.342-0.222,0.471-0.332
		c0.13-0.11,0.225-0.196,0.285-0.258V102.372z"/>
	<path class="st1" d="M322.932,98.993h-0.1c-0.305,0-0.604,0.027-0.896,0.083c-0.294,0.056-0.569,0.14-0.826,0.253
		c-0.258,0.113-0.49,0.254-0.697,0.42c-0.208,0.166-0.381,0.362-0.52,0.589v5.495h-1.286v-7.886h0.996l0.249,1.253h0.025
		c0.127-0.204,0.283-0.396,0.469-0.572s0.395-0.332,0.627-0.465s0.486-0.236,0.764-0.312c0.276-0.074,0.566-0.112,0.871-0.112
		c0.056,0,0.112,0.002,0.17,0.005c0.059,0.003,0.109,0.007,0.154,0.013V98.993z"/>
	<path class="st1" d="M340.166,104.92c0.427,0,0.815-0.034,1.167-0.104s0.701-0.168,1.05-0.295v1.071
		c-0.282,0.138-0.631,0.247-1.046,0.327s-0.86,0.12-1.337,0.12c-0.564,0-1.094-0.071-1.589-0.215
		c-0.495-0.145-0.925-0.377-1.286-0.697c-0.362-0.321-0.646-0.74-0.852-1.258s-0.307-1.142-0.307-1.872
		c0-0.72,0.099-1.344,0.298-1.872c0.198-0.528,0.464-0.97,0.795-1.324c0.331-0.354,0.712-0.619,1.143-0.797
		c0.431-0.177,0.88-0.266,1.35-0.266c0.441,0,0.854,0.074,1.238,0.221c0.383,0.146,0.716,0.377,0.997,0.693
		c0.281,0.314,0.504,0.722,0.667,1.22s0.244,1.096,0.244,1.793c0,0.066,0,0.123,0,0.17s-0.003,0.153-0.009,0.319h-5.445
		c0,0.504,0.076,0.932,0.229,1.283s0.36,0.636,0.623,0.854s0.571,0.378,0.926,0.478C339.375,104.87,339.757,104.92,340.166,104.92z
		 M339.487,98.844c-0.297,0-0.572,0.058-0.827,0.175c-0.255,0.115-0.478,0.273-0.668,0.473s-0.345,0.433-0.463,0.701
		c-0.117,0.269-0.19,0.555-0.219,0.859h4.035c0-0.31-0.041-0.599-0.122-0.867s-0.2-0.502-0.357-0.701s-0.351-0.356-0.58-0.47
		S339.79,98.844,339.487,98.844z"/>
</g>
<g>
	<path class="st0" d="M58.599,44.653l-3.319,8.682l-0.465,1.221H30.979c-10.951,0-19.861,9.287-19.861,20.687
		c0,11.411,8.911,20.687,19.861,20.687h8.002l-3.319,8.682l-0.169,0.44l-0.296,0.781h-4.217c-16.193,0-29.374-13.721-29.374-30.59
		s13.181-30.59,29.374-30.59H58.599z"/>
</g>
<g>
	<g>
		<polygon class="st1" points="73.443,41.979 68.63,54.556 52.796,95.93 49.012,105.833 48.843,106.273 38.442,106.273
			38.611,105.833 42.395,95.93 58.229,54.556 62.013,44.653 63.038,41.979 68.662,41.979 		"/>
	</g>
</g>
<g>
	<g>
		<polygon class="st1" points="99.245,23.486 67.575,106.273 57.164,106.273 88.832,23.486 		"/>
	</g>
</g>
<g>
	<g>
		<polygon class="st1" points="126.755,0 86.295,106.273 75.894,106.273 116.547,0 		"/>
	</g>
</g>
</svg>
